# xmcd
#
# Track frame offsets:
#	150
#	11301
#	21678
#	33882
#	42424
#	55736
#	69541
#	84049
#	94841
#	105145
#	117370
#	125906
#
# Disc length: 1822 seconds
#
# Revision: 1
# Processed by: cddbd v1.5.2PL0 Copyright (c) Steve Scherf et al.
# Submitted via: audiograbber 1.83.01
#
DISCID=92071c0c
DTITLE=Various Artist - Country Lovesongs
DYEAR=2003
DGENRE=Country
TTITLE0=Patsy Cline - Hungry For Love
TTITLE1=Faron Young - Alone With You
TTITLE2=Willie Nelson - Shelter Of My Arms
TTITLE3=Billie Jo Spears - You're My Man
TTITLE4=Roy Clarke - Come Live With Me
TTITLE5=Jo Ann Steele - Lovin' You Lovin' Me
TTITLE6=Conway Twitty - I Need Your Lovin'
TTITLE7=Johnny Paycheck - Heartbreak, Tennessee
TTITLE8=Buck Owens - Under The Influence Of Love
TTITLE9=Dottie West - Crazy
TTITLE10=Waylon Jennings - Love's Gonna Live Here
TTITLE11=Jim Reeves - Have I Told You Lately That I Love You
EXTD=
EXTT0=
EXTT1=
EXTT2=
EXTT3=
EXTT4=
EXTT5=
EXTT6=
EXTT7=
EXTT8=
EXTT9=
EXTT10=
EXTT11=
PLAYORDER=
